# xmcd
# Track frame offsets:
# 150
# 17849
# 33302
# 50148
# 67733
# 85178
# 102997
# 119950
# 135767
# 152242
# 167985
# 184230
# 200120
# 215874
# 233384
#
# Disc length: 3341 seconds
# Revision: 0
# Processed by: cddbd v1.5.1PL0 Copyright (c) Steve Scherf et al.
# Submitted via: VisiTrax 2.9.10.228 - For more info visit www.synapsa.com
#
DISCID=d70d0b0f
DTITLE=Various Artist - CB60324
DYEAR=1900
DGENRE=Karaoke
TTITLE0=Chesney, Kenny - I Go Back
TTITLE1=Cotter, Brad - I Meant To
TTITLE2=Jewell, Buddy - One Step At A Time
TTITLE3=Evans, Sara - Suds In The Bucket
TTITLE4=Bentley, Dierks - How Am I Doin'?
TTITLE5=Black, Clint - Boogie Man, The
TTITLE6=Emerick, Scotty - Watch, The
TTITLE7=Johnson, Carolyn Dawn - Die Of A Broken Heart
TTITLE8=Blue County - That's Cool
TTITLE9=Holy, Steve - Put Your Best Dress On
TTITLE10=Vassar, Phil - In A Real Love
TTITLE11=Brokop, Lisa - Wildflower
TTITLE12=Big and Rich - Save A Horse (Ride A Cowboy)
TTITLE13=Carpenter, Mary Chapin - What Would You Say To Me
TTITLE14=Hughes, Jedd - High Lonesome
EXTD=
EXTT0=
EXTT1=
EXTT2=
EXTT3=
EXTT4=
EXTT5=
EXTT6=
EXTT7=
EXTT8=
EXTT9=
EXTT10=
EXTT11=
EXTT12=
EXTT13=
EXTT14=
PLAYORDER=
